<svg width="15" height="16" viewBox="0 0 15 16" fill="none" xmlns="http://www.w3.org/2000/svg">
<path d="M1.15385 13.7127C1.15385 14.3193 1.39698 14.9011 1.82975 15.3301C2.26253 15.759 2.8495 16 3.46154 16H6.77885C6.8171 16 6.85378 15.9849 6.88083 15.9581C6.90788 15.9313 6.92308 15.895 6.92308 15.857V9.2811C6.92308 9.24319 6.90788 9.20683 6.88083 9.18002C6.85378 9.15321 6.8171 9.13815 6.77885 9.13815H1.44231C1.3658 9.13815 1.29243 9.16827 1.23833 9.22189C1.18424 9.27551 1.15385 9.34823 1.15385 9.42406V13.7127ZM6.92308 7.85155V3.99176H8.07692V7.85155C8.07692 7.88947 8.09212 7.92583 8.11917 7.95264C8.14622 7.97945 8.1829 7.99451 8.22115 7.99451H13.2692C13.4658 7.9945 13.6609 7.96126 13.8462 7.89622C14.1833 7.77758 14.4752 7.55847 14.6818 7.26895C14.8883 6.97942 14.9995 6.63365 15 6.27904V5.70722C15 5.25225 14.8177 4.81592 14.4931 4.49421C14.1685 4.1725 13.7283 3.99176 13.2692 3.99176H11.8075C11.7949 3.99156 11.7826 3.98811 11.7718 3.98176C11.761 3.9754 11.7521 3.96636 11.7459 3.95553C11.7397 3.9447 11.7364 3.93245 11.7365 3.92C11.7365 3.90755 11.7399 3.89533 11.7462 3.88454C12.08 3.3259 12.1884 2.66283 12.0497 2.02828C11.911 1.39373 11.5353 0.834611 10.9982 0.46304C10.461 0.091469 9.8019 -0.0650856 9.15314 0.0247675C8.50437 0.114621 7.91386 0.444239 7.5 0.947528C7.08614 0.444239 6.49563 0.114621 5.84686 0.0247675C5.19809 -0.0650856 4.53904 0.091469 4.00184 0.46304C3.46465 0.834611 3.08903 1.39373 2.95031 2.02828C2.81159 2.66283 2.92001 3.3259 3.25385 3.88454C3.26013 3.89533 3.26346 3.90755 3.26351 3.92C3.26356 3.93245 3.26033 3.9447 3.25414 3.95553C3.24795 3.96636 3.23901 3.9754 3.2282 3.98176C3.2174 3.98811 3.20511 3.99156 3.19255 3.99176H1.73077C1.27174 3.99176 0.831513 4.1725 0.506931 4.49421C0.182348 4.81592 0 5.25225 0 5.70722V6.27904C0.000509215 6.63365 0.111672 6.97942 0.318246 7.26895C0.524821 7.55847 0.816693 7.77758 1.15385 7.89622C1.33912 7.96126 1.53422 7.9945 1.73077 7.99451H6.77885C6.8171 7.99451 6.85378 7.97945 6.88083 7.95264C6.90788 7.92583 6.92308 7.88947 6.92308 7.85155ZM8.07692 2.56221C8.07692 2.27947 8.16151 2.00308 8.32 1.76799C8.47848 1.5329 8.70374 1.34967 8.96728 1.24147C9.23083 1.13327 9.52083 1.10496 9.80061 1.16012C10.0804 1.21528 10.3374 1.35144 10.5391 1.55136C10.7408 1.75129 10.8782 2.00601 10.9338 2.28332C10.9895 2.56062 10.9609 2.84806 10.8517 3.10927C10.7426 3.37049 10.5577 3.59376 10.3205 3.75084C10.0833 3.90792 9.80449 3.99176 9.51923 3.99176H8.07692V2.56221ZM5.37764 1.13623C5.57524 1.12219 5.77363 1.14865 5.96046 1.21395C6.14728 1.27925 6.31853 1.382 6.46353 1.51579C6.60853 1.64958 6.72416 1.81154 6.80323 1.99158C6.88229 2.17161 6.92309 2.36586 6.92308 2.56221V3.99176H5.48077C5.10782 3.99081 4.74974 3.84671 4.48168 3.58971C4.21363 3.3327 4.05643 2.98277 4.04309 2.61336C4.02974 2.24394 4.16129 1.88377 4.41012 1.60842C4.65895 1.33307 5.00572 1.16397 5.37764 1.13659V1.13623ZM8.22115 16H11.5385C12.1505 16 12.7375 15.759 13.1702 15.3301C13.603 14.9011 13.8462 14.3193 13.8462 13.7127V9.42406C13.8462 9.34823 13.8158 9.27551 13.7617 9.22189C13.7076 9.16827 13.6342 9.13815 13.5577 9.13815H8.22115C8.1829 9.13815 8.14622 9.15321 8.11917 9.18002C8.09212 9.20683 8.07692 9.24319 8.07692 9.2811V15.857C8.07692 15.895 8.09212 15.9313 8.11917 15.9581C8.14622 15.9849 8.1829 16 8.22115 16Z" fill="#1DBF73"/>
</svg>
